#!OML:ASF H:\Terrain\Patient Classification 1\Takeo\Monday\TakeoMonday.ASF
:FULLY-SPECIFIED
:DEGREES
549
root 5.66422 17.0077 3.0941 -101.402 84.1488 -98.2234
lowerback 13.148 -6.44114 1.43683
upperback 7.32689 -8.05061 -6.40595
thorax -0.72467 -3.73556 -6.38391
lowerneck -1.98135 -10.1943 -9.78068
upperneck 6.60673 -13.7216 7.07489
head 3.4524 -6.84178 3.0626
rclavicle 6.91771e-014 4.13472e-014
rhumerus -35.5431 -36.4341 10.3918
rradius 34.3402
rwrist -7.54565
rhand -49.3198 31.8396
rfingers 7.12502
rthumb -21.9361 3.06327
lclavicle 6.91771e-014 4.13472e-014
lhumerus -40.3186 17.2728 58.4335
lradius 96.0866
lwrist 31.3321
lhand -32.0862 23.8885
lfingers 7.12502
lthumb -5.33195 53.8014
rfemur -14.6372 -1.86638 26.2257
rtibia 42.9085
rfoot -22.741 -7.11915
rtoes 3.9842
lfemur -3.29059 12.3772 1.49203
ltibia 34.4384
lfoot -18.5373 21.0883
ltoes -3.68999
550
root 5.66941 17.0594 3.11879 -108.386 86.2195 -105.871
lowerback 12.5264 -6.38387 -0.872768
upperback 7.05282 -8.20669 -7.00093
thorax -0.46993 -3.8481 -5.75576
lowerneck -1.91097 -10.0972 -9.6566
upperneck 6.65275 -13.604 7.06436
head 3.43574 -6.78263 3.05291
rclavicle 5.24792e-014 -3.18055e-014
rhumerus -35.4697 -36.2746 10.3009
rradius 34.1648
rwrist -7.27727
rhand -49.382 31.4527
rfingers 7.12502
rthumb -21.9958 2.68334
lclavicle 5.24792e-014 -3.18055e-014
lhumerus -40.4543 17.3771 58.3395
lradius 96.2078
lwrist 31.2819
lhand -32.2243 23.6826
lfingers 7.12502
lthumb -5.46531 53.5921
rfemur -15.2629 -1.94393 23.7542
rtibia 42.9458
rfoot -23.1981 -6.0652
rtoes 8.34519
lfemur -3.76681 11.9094 -1.32041
ltibia 34.0549
lfoot -18.5658 21.9983
ltoes -4.06804
551
root 5.67519 17.0767 3.13004 -108.662 86.7881 -106.202
lowerback 12.4296 -6.32868 -1.4487
upperback 6.94548 -8.19142 -7.21451
thorax -0.479643 -3.84771 -5.66973
lowerneck -1.67566 -10.0618 -9.65689
upperneck 6.70861 -13.5878 7.17317
head 3.42056 -6.77643 3.09762
rclavicle -3.65764e-014 -9.54166e-015
rhumerus -35.5586 -36.2757 10.4042
rradius 34.0385
rwrist -6.98175
rhand -48.9996 31.8538
rfingers 7.12502
rthumb -21.6286 3.04178
lclavicle -3.65764e-014 -9.54166e-015
lhumerus -40.5119 17.4741 58.334
lradius 96.2636
lwrist 31.0918
lhand -31.9294 23.8639
lfingers 7.12502
lthumb -5.18052 53.7805
rfemur -15.2274 -1.92928 23.1303
rtibia 42.8929
rfoot -23.0932 -5.63591
rtoes 9.31628
lfemur -3.50678 11.5991 -2.0488
ltibia 33.6528
lfoot -18.6256 22.5531
ltoes -3.74906
552
root 5.68026 17.087 3.12952 -104.793 87.1418 -102.316
lowerback 12.4089 -6.31976 -1.77088
upperback 6.8521 -8.21947 -7.29586
thorax -0.535779 -3.86822 -5.57045
lowerneck -1.61777 -9.94911 -9.64514
upperneck 6.8064 -13.435 7.06074
head 3.41932 -6.70473 3.07428
rclavicle 3.18055e-014 4.77083e-014
rhumerus -35.3543 -36.421 10.3295
rradius 34.0776
rwrist -6.59843
rhand -48.8362 31.974
rfingers 7.12502
rthumb -21.4718 3.14395
lclavicle 3.18055e-014 4.77083e-014
lhumerus -40.8709 17.6957 58.1673
lradius 96.3348
lwrist 31.1262
lhand -31.22 24.7554
lfingers 7.12502
lthumb -4.49557 54.6876
rfemur -15.1887 -1.93135 22.7888
rtibia 42.9488
rfoot -22.9194 -5.21552
rtoes 9.51283
lfemur -3.03638 11.1844 -2.49541
ltibia 33.0717
lfoot -18.9971 23.0296
ltoes -2.72969
553
root 5.67779 17.091 3.13153 -98.6649 86.9761 -96.2075
lowerback 12.3432 -6.39635 -1.63989
upperback 6.83005 -8.31398 -7.247
thorax -0.543829 -3.91788 -5.58189
lowerneck -1.58145 -9.80873 -9.73688
upperneck 6.77569 -13.2522 7.15881
head 3.40146 -6.61422 3.13199
rclavicle 1.23246e-013 9.54166e-014
rhumerus -35.0005 -36.6506 10.0173
rradius 34.1644
rwrist -6.14843
rhand -48.9973 31.302
rfingers 7.12502
rthumb -21.6265 2.48974
lclavicle 1.23246e-013 9.54166e-014
lhumerus -41.101 17.958 57.9572
lradius 96.3306
lwrist 31.2772
lhand -30.9432 25.7795
lfingers 7.12502
lthumb -4.22826 55.7172
rfemur -15.1075 -1.89786 23.0437
rtibia 42.6391
rfoot -22.6805 -4.99814
rtoes 10.4308
lfemur -2.90832 11.1233 -2.27326
ltibia 32.9813
lfoot -19.2291 23.1414
ltoes -2.60982
554
root 5.6735 17.0805 3.14191 -93.0634 86.4352 -90.4737
lowerback 12.3564 -6.38582 -1.1386
upperback 6.91016 -8.2492 -7.2122
thorax -0.526587 -3.87766 -5.83374
lowerneck -1.40928 -9.70206 -9.96241
upperneck 6.66619 -13.1654 7.8043
head 3.39093 -6.56192 3.37367
rclavicle -2.70347e-014 -3.49861e-014
rhumerus -35.0314 -36.3547 9.73266
rradius 34.2965
rwrist -6.2872
rhand -49.1343 30.7149
rfingers 7.12502
rthumb -21.758 1.9178
lclavicle -2.70347e-014 -3.49861e-014
lhumerus -40.7237 18.0194 57.9478
lradius 96.0623
lwrist 31.1571
lhand -31.099 25.7099
lfingers 7.12502
lthumb -4.37871 55.6447
rfemur -14.8924 -1.85354 23.752
rtibia 42.2991
rfoot -22.2775 -5.20514
rtoes 8.89663
lfemur -2.68203 11.351 -1.52422
ltibia 32.9602
lfoot -19.0552 23.103
ltoes -3.00595
555
root 5.67076 17.0652 3.15948 -87.0278 86.1963 -84.3705
lowerback 12.3134 -6.25204 -1.07846
upperback 6.93936 -8.06143 -7.24378
thorax -0.467284 -3.78102 -5.93453
lowerneck -1.39561 -9.57949 -10.085
upperneck 6.61632 -13.0438 8.37632
head 3.40858 -6.48865 3.57206
rclavicle -9.54166e-015 -7.63333e-014
rhumerus -35.183 -35.8861 9.40795
rradius 34.4912
rwrist -6.53381
rhand -49.2429 30.5587
rfingers 7.12502
rthumb -21.8623 1.77371
lclavicle -9.54166e-015 -7.63333e-014
lhumerus -40.3316 17.8736 57.9884
lradius 95.8488
lwrist 31.0616
lhand -31.1368 25.7049
lfingers 7.12502
lthumb -4.41525 55.6389
rfemur -14.8138 -1.74102 24.1474
rtibia 42.0241
rfoot -21.7842 -5.56327
rtoes 5.29632
lfemur -2.47191 11.4032 -1.20284
ltibia 32.9513
lfoot -19.1816 23.2775
ltoes -2.42783
